<svg width="152" height="126" viewBox="0 0 152 126" fill="none" xmlns="http://www.w3.org/2000/svg">
<g clip-path="url(#clip0_2_46)">
<path d="M45.8602 95.9768L46.0421 122.113L48.6977 122.094L48.7259 125.95L41.7875 125.997L41.5774 96.0019L45.8602 95.9706V95.9768Z" fill="#FB9F89"/>
<path d="M51.9867 95.9329L58.8374 95.8859L58.8656 99.7415L56.2978 99.7603L56.3605 108.585L58.7151 108.57L58.7433 112.425L56.3887 112.441L56.4545 122.038L59.2387 122.019L59.2669 125.875L52.1999 125.925L51.9898 95.9298L51.9867 95.9329Z" fill="#FB9F89"/>
<path d="M64.6878 95.8451L70.6825 95.8043L73.2472 125.78L68.5379 125.812L68.2307 118.659L67.033 118.668L66.8261 125.827L62.5432 125.856L64.6878 95.8451ZM68.0739 114.803L67.7102 105.721L67.5472 100.538H67.4625L67.3716 105.724L67.1365 114.81L68.077 114.803H68.0739Z" fill="#FB9F89"/>
<path d="M85.8355 109.881L85.9452 125.693L81.6624 125.724L81.6499 124.011H81.5652C81.1451 125.3 80.2954 125.991 79.1824 126C77.5112 126.013 76.5174 124.475 76.4985 121.777L76.348 100.225C76.3292 97.398 78.201 95.4968 81.0698 95.478C83.8947 95.4592 85.7508 97.2882 85.7697 100.159L85.8167 107.057L81.5338 107.089L81.4837 99.9768C81.4837 99.547 81.352 99.3337 81.051 99.3368C80.75 99.3368 80.6246 99.5533 80.6277 99.9831L80.7782 121.664C80.7782 122.094 80.9099 122.307 81.2109 122.304C81.5119 122.304 81.6373 122.088 81.6342 121.658L81.5777 113.774H81.1482L81.12 109.922L85.8292 109.89L85.8355 109.881Z" fill="#FB9F89"/>
<path d="M98.9222 121.144C98.9442 124.143 96.9846 125.871 94.2443 125.89C91.5041 125.909 89.5226 124.209 89.5006 121.209L89.3219 95.6725L93.6047 95.6412L93.7834 121.391C93.7834 121.821 93.9151 122.035 94.2161 122.031C94.5171 122.031 94.6425 121.815 94.6394 121.385L94.4607 95.6349L98.7435 95.6035L98.9222 121.14V121.144Z" fill="#FB9F89"/>
<path d="M102.343 95.5816L109.194 95.5345L109.222 99.3901L106.654 99.409L106.717 108.234L109.071 108.218L109.099 112.074L106.745 112.09L106.811 121.686L109.595 121.668L109.623 125.523L102.556 125.573L102.346 95.5784L102.343 95.5816Z" fill="#FB9F89"/>
<path d="M66.848 42.892L61.6748 38.5438L51.2687 29.0161L47.8543 25.8789L34.686 13.832C27.4434 6.50659 27.0578 0.379603 27.0452 0L23.8315 11.9089C21.8845 19.1276 24.1952 26.8263 29.798 31.7769L30.7982 32.6616L29.2368 36.1407C28.9672 36.6364 28.732 37.1635 28.5094 37.6936L28.2053 38.4466L27.1988 40.7022L26.4338 40.0058C20.8279 34.3243 19.1599 29.1322 19.1599 28.8404L16.0842 40.2034C14.7422 44.6143 17.285 49.6182 20.8906 52.4919L21.6525 53.0974L12.9614 72.4916L10.7949 77.2539C6.06683 86.4052 0.35429 88.6577 0 88.7738L16.1939 86.4711C22.1259 85.6272 27.1738 81.7182 29.4782 76.1841L34.5073 64.109C35.5482 65.0502 38.0909 67.3184 40.7152 69.6744C43.3426 72.0148 46.0515 74.4398 47.4279 75.6791C53.9493 81.5111 54.2597 86.2734 54.2785 86.5558L56.1629 75.6414C56.9655 70.9701 54.9746 66.5121 51.8581 63.0423C51.5477 62.6973 51.2028 62.3804 50.8485 62.0792L47.3746 59.1616L39.668 52.0997C40.8594 49.43 42.2327 46.2959 43.4743 43.51L44.4023 44.3038C44.4023 44.3038 57.6333 56.153 61.7437 59.833C70.1495 67.3435 70.5571 73.4924 70.5728 73.8689L73.0152 59.7953C74.1 53.4707 71.7705 47.0206 66.8512 42.8857L66.848 42.892Z" fill="#FB9F89"/>
<path d="M141.205 77.2602L139.039 72.4979L130.348 53.1037L131.109 52.4982C134.712 49.6245 137.255 44.6206 135.916 40.2097L132.84 28.8467C132.84 29.1353 131.169 34.3306 125.563 40.0121L124.798 40.7085L123.792 38.4529L123.487 37.6999C123.265 37.1697 123.033 36.6395 122.76 36.147L121.199 32.6678L122.199 31.7831C127.802 26.8326 130.112 19.1339 128.165 11.9151L124.955 0C124.939 0.379603 124.557 6.50659 117.314 13.832L104.146 25.8789L100.731 29.0161L90.3252 38.5438L85.152 42.892C80.2327 47.0269 77.9 53.4801 78.988 59.8016L81.4304 73.8752C81.446 73.4987 81.8536 67.3498 90.2594 59.8424C94.3698 56.1593 107.601 44.3132 107.601 44.3132L108.529 43.5195C109.77 46.3053 111.144 49.4425 112.335 52.1092L104.629 59.171L101.155 62.0886C100.797 62.3867 100.455 62.7035 100.145 63.0518C97.0254 66.5215 95.0345 70.9795 95.8403 75.6508L97.7246 86.5652C97.7434 86.2829 98.0538 81.5206 104.575 75.6885C105.952 74.4493 108.661 72.0242 111.288 69.6838C113.912 67.3309 116.455 65.0596 117.496 64.1184L122.525 76.1936C124.829 81.7276 129.877 85.6366 135.809 86.4805L152.003 88.7832C151.652 88.6671 145.936 86.4146 141.208 77.2634L141.205 77.2602Z" fill="#FB9F89"/>
</g>
<defs>
<clipPath id="clip0_2_46">
<rect width="152" height="126" fill="white"/>
</clipPath>
</defs>
</svg>
